<?xml version="1.0" standalone="no"?>
<!DOCTYPE svg PUBLIC "-//W3C//DTD SVG 20010904//EN"
 "http://www.w3.org/TR/2001/REC-SVG-20010904/DTD/svg10.dtd">
<svg version="1.0" xmlns="http://www.w3.org/2000/svg"
 width="1698.000000pt" height="1698.000000pt" viewBox="0 0 1698.000000 1698.000000"
 preserveAspectRatio="xMidYMid meet">
<metadata>
Created by potrace 1.11, written by Peter Selinger 2001-2013
</metadata>
<g transform="translate(0.000000,1698.000000) scale(0.100000,-0.100000)"
fill="#000000" stroke="none">
<path d="M8138 16945 c-2 -2 -57 -6 -123 -9 -66 -3 -147 -9 -180 -11 -33 -3
-80 -7 -105 -9 -132 -11 -288 -28 -370 -41 -14 -2 -45 -7 -70 -10 -87 -12
-172 -25 -205 -31 -11 -2 -49 -9 -85 -15 -36 -5 -119 -21 -185 -35 -66 -13
-133 -27 -149 -30 -16 -3 -32 -6 -35 -8 -3 -2 -22 -7 -41 -10 -19 -3 -80 -17
-135 -31 -55 -14 -109 -28 -119 -30 -80 -18 -349 -99 -536 -161 -715 -238
-1366 -555 -2005 -979 -843 -559 -1593 -1277 -2178 -2086 -86 -119 -119 -167
-205 -296 -91 -136 -238 -376 -307 -498 -87 -157 -121 -218 -157 -290 -22 -44
-44 -87 -49 -95 -16 -26 -144 -300 -192 -410 -75 -174 -233 -579 -251 -645 -2
-5 -5 -17 -8 -25 -7 -18 -85 -268 -103 -330 -13 -44 -53 -191 -60 -220 -2 -8
-13 -51 -24 -95 -31 -121 -42 -168 -47 -190 -7 -34 -12 -58 -23 -105 -5 -25
-12 -61 -16 -80 -3 -19 -10 -55 -15 -80 -10 -46 -13 -62 -30 -165 -5 -33 -12
-69 -14 -80 -2 -11 -7 -42 -10 -68 -4 -27 -9 -56 -11 -65 -3 -19 -12 -89 -20
-159 -3 -27 -8 -61 -10 -78 -2 -16 -6 -59 -10 -95 -3 -36 -8 -81 -10 -100 -28
-216 -45 -849 -30 -1140 7 -133 16 -296 19 -325 2 -16 6 -68 10 -115 4 -47 9
-96 11 -110 2 -14 7 -52 10 -85 4 -33 8 -71 10 -85 2 -14 6 -47 10 -75 6 -47
52 -334 61 -379 2 -12 9 -48 15 -81 20 -116 88 -415 115 -515 9 -30 20 -71 25
-90 78 -296 273 -864 373 -1085 8 -16 45 -100 84 -185 135 -299 294 -602 465
-885 125 -206 435 -662 524 -770 5 -5 43 -53 84 -105 93 -116 236 -287 324
-385 36 -40 75 -84 86 -96 11 -13 63 -67 115 -121 52 -53 94 -99 94 -103 0 -5
-546 -552 -1212 -1216 -964 -961 -1210 -1211 -1198 -1219 12 -7 193 168 868
843 470 469 1016 1014 1213 1211 l360 359 53 -54 c334 -340 858 -763 1316
-1061 501 -326 1057 -610 1590 -813 69 -26 134 -51 145 -56 45 -19 391 -131
540 -174 133 -39 472 -125 541 -138 11 -2 30 -7 44 -10 21 -5 131 -26 270 -52
37 -7 211 -36 240 -40 14 -2 43 -6 65 -9 97 -14 146 -20 245 -31 30 -3 71 -8
90 -10 83 -9 195 -18 400 -31 245 -16 938 -9 1110 11 19 3 69 7 110 10 123 8
188 16 410 45 153 20 135 17 405 65 40 7 60 11 200 40 66 14 131 28 145 31
326 69 1025 289 1295 409 17 7 70 30 119 50 49 20 96 40 105 45 9 5 50 23 91
41 109 48 558 276 675 344 277 160 607 374 805 521 47 35 96 71 109 81 70 51
364 284 381 303 3 3 39 34 80 70 143 123 278 250 434 406 172 171 303 312 437
469 19 22 40 46 47 54 35 37 221 272 321 406 61 83 115 155 120 161 5 6 30 44
57 85 27 41 52 76 55 79 10 8 186 286 254 400 54 92 94 161 172 300 79 140
252 499 332 690 29 69 59 139 67 155 13 29 61 154 122 320 32 86 149 445 157
479 2 12 22 86 45 166 36 131 106 418 116 480 3 14 13 70 24 125 25 133 48
260 55 315 3 25 8 52 10 60 2 8 6 42 10 75 3 33 8 67 10 75 2 8 7 44 10 80 3
36 8 78 10 93 2 15 6 60 10 100 3 40 8 92 10 117 2 25 7 92 11 150 3 58 8 125
10 150 5 66 5 683 0 765 -2 39 -7 117 -10 175 -4 58 -8 123 -11 145 -2 22 -7
76 -11 120 -3 44 -8 88 -9 97 -2 9 -7 48 -10 85 -4 37 -8 75 -10 83 -2 8 -7
40 -10 70 -3 30 -8 66 -10 80 -3 14 -7 39 -9 55 -13 81 -36 223 -42 250 -3 17
-12 64 -20 105 -8 41 -17 86 -20 100 -9 48 -95 408 -105 441 -6 19 -12 41 -14
50 -12 57 -104 354 -154 501 -131 380 -260 688 -446 1058 -145 289 -313 581
-487 845 -94 142 -180 267 -188 275 -3 3 -22 28 -41 55 -18 28 -36 52 -39 55
-3 3 -39 50 -80 105 -62 83 -319 396 -386 471 -62 69 -221 239 -292 312 -45
47 -81 86 -80 88 14 15 831 833 1541 1540 482 482 877 879 877 884 0 5 -4 11
-9 14 -5 3 -548 -532 -1207 -1189 -660 -658 -1206 -1202 -1215 -1211 -15 -13
-21 -11 -60 27 -196 186 -272 256 -359 329 -36 30 -67 57 -70 61 -16 17 -287
232 -409 324 -287 215 -601 420 -906 591 -27 15 -68 38 -90 51 -66 37 -504
256 -585 292 -41 18 -95 42 -119 53 -173 78 -515 206 -776 291 -140 45 -402
122 -449 131 -6 2 -29 8 -51 14 -42 12 -416 95 -475 106 -19 3 -46 8 -60 11
-39 8 -320 53 -370 59 -25 4 -54 8 -65 10 -11 2 -49 7 -85 11 -36 4 -74 9 -85
11 -11 2 -51 6 -90 9 -38 3 -86 8 -105 10 -19 2 -75 7 -125 10 -49 4 -115 9
-145 11 -62 5 -847 13 -852 9z"/>
</g>
</svg>
